<svg width="544" height="321" viewBox="0 0 544 321" fill="none" xmlns="http://www.w3.org/2000/svg">
<path d="M-288.919 519.139C-195.563 367.346 -76.4608 240.87 90.9403 267.919C189.531 283.849 304.83 338.509 371.549 360.2C520.762 408.708 700.305 381.45 774.346 317.939" stroke="#3F0973" stroke-opacity="0.2" stroke-width="27.6952"/>
<path d="M-288.919 519.14C-55.2783 490.555 -135.612 275.301 23.2844 201.563C171.978 132.561 268.839 284.083 371.549 360.2C548.686 491.474 700.305 381.45 774.346 317.939C811.703 290.383 892.174 171.435 822.437 25.1048C735.267 -157.808 484.687 -53.544 410.796 10.2881C317.554 90.838 341.065 179.836 351.678 209.972C367.394 254.599 440.452 405.778 767.097 297.354" stroke="#3F0973" stroke-width="27.6952"/>
</svg>
