<svg width="322" height="460" viewBox="0 0 322 460" fill="none" xmlns="http://www.w3.org/2000/svg">
<path fill-rule="evenodd" clip-rule="evenodd" d="M-13.832 9.00855C-11.5402 7.94575 -9.20382 7.25025 -6.87132 6.89042C-6.67247 6.82785 -6.47339 6.76593 -6.27402 6.70462C-0.703382 4.99181 4.97929 3.80274 10.7034 3.13387C20.8584 -1.82876 73.9019 -4.04041 98.7084 37.5622C106.721 50.9995 115.062 65.2675 123.21 79.3768L139.293 70.0912C185.688 43.3051 244.057 56.0455 275.406 97.864C277.863 99.3303 280.094 101.242 281.975 103.586C306.286 133.895 316.164 159.011 320.166 202.638C324.823 253.4 312.969 304.239 286.378 347.555C259.787 390.87 219.887 424.334 172.644 442.942C125.401 461.55 73.354 464.303 24.2849 450.789C-24.7841 437.275 -68.2386 408.221 -99.5809 367.97C-130.923 327.719 -148.469 278.434 -149.596 227.485C-150.722 176.536 -135.368 126.66 -105.829 85.3156C-82.1673 52.1966 -50.4221 25.9771 -13.832 9.00855ZM236.894 135.375L236.598 134.862C222.271 110.046 190.539 101.544 165.724 115.871L149.407 125.292C159.721 143.571 168.351 159.104 173.66 168.782C174.716 170.587 175.719 172.425 176.669 174.295C176.836 174.603 176.996 174.898 177.148 175.18L177.124 175.2C178.399 177.771 179.574 180.4 180.643 183.082C189.23 204.614 190.542 228.345 184.38 250.635C178.217 272.924 164.92 292.539 146.529 306.47C128.138 320.401 105.669 327.878 82.5709 327.754C59.4725 327.63 37.0209 319.911 18.6616 305.781C0.302277 291.652 -12.9503 271.894 -19.0624 249.539C-25.1745 227.183 -23.8083 203.466 -15.1735 182.027C-9.29043 167.42 -0.254819 154.42 11.1846 143.9C20.0923 135.709 33.7347 139.295 39.8996 149.708L47.5731 162.669C53.7404 173.085 49.6369 186.431 43.147 196.652C41.6273 199.046 40.3201 201.586 39.2486 204.246C35.4157 213.763 34.8092 224.291 37.5223 234.215C40.2355 244.139 46.1183 252.909 54.268 259.181C62.4177 265.453 72.384 268.88 82.6374 268.935C92.8907 268.99 102.865 265.671 111.028 259.487C119.192 253.303 125.095 244.596 127.83 234.702C130.566 224.807 129.983 214.273 126.172 204.715C125.083 201.985 123.748 199.377 122.192 196.922C120.33 193.984 118.673 190.788 117.406 187.477C104.313 163.299 86.5164 132.291 75.5589 113.29C74.5142 112.126 73.5843 110.845 72.7926 109.466C69.4394 103.623 65.5064 97.0733 62.0897 91.3834C59.5885 87.218 57.364 83.5135 55.8462 80.8846C50.1678 71.0493 44.716 67.0601 41.1988 65.4422C38.7209 64.3025 35.9651 63.6813 33.293 63.1409C26.4248 61.7518 18.3566 63.2587 11.8647 65.2548C8.22197 66.3748 4.65088 67.6195 1.00004 69.2395C-21.7394 81.7466 -41.5277 99.2543 -56.7938 120.622C-78.7719 151.384 -90.1961 188.494 -89.3581 226.403C-88.5201 264.311 -75.4649 300.982 -52.1448 330.93C-28.8246 360.879 3.50763 382.497 40.0174 392.552C76.5271 402.607 115.253 400.559 150.404 386.713C185.555 372.868 215.242 347.969 235.027 315.741C254.812 283.512 263.632 245.685 260.167 207.915C257.851 182.665 251.292 161.169 239.628 141.249C238.524 139.362 237.613 137.393 236.894 135.375Z" fill="#A855F7" fill-opacity="0.52"/>
</svg>
