<svg width="139" height="44" viewBox="0 0 139 44" fill="none" xmlns="http://www.w3.org/2000/svg">
<path d="M35.1 11.18L32.56 11.23V8.39999C32.56 3.76999 28.8 0.00998707 24.17 0.00998707H22.2C10.2 -1.29305e-05 0.250027 9.57999 2.74819e-05 21.36C-0.119973 27.36 2.14003 33 6.39003 37.25C10.52 41.38 15.98 43.64 21.81 43.64C21.96 43.64 22.12 43.64 22.27 43.64C34.05 43.4 43.63 33.44 43.63 21.44V19.57C43.63 17.3 42.74 15.17 41.12 13.58C39.5 11.99 37.35 11.13 35.09 11.18H35.1ZM38.07 21.44C38.07 30.43 30.94 37.89 22.17 38.07C17.71 38.18 13.5 36.47 10.34 33.32C7.18003 30.16 5.49003 25.96 5.58003 21.49C5.76003 12.72 13.22 5.58999 22.21 5.58999H24.18C25.73 5.58999 27 6.84999 27 8.40999V21.84C27 23.26 26.44 24.58 25.41 25.57C24.39 26.55 23.04 27.06 21.62 27.01C19.03 26.91 16.81 24.72 16.67 22.14C16.54 19.81 17.93 17.74 20.11 16.97C21.56 16.46 22.32 14.87 21.81 13.42C21.3 11.97 19.71 11.21 18.26 11.72C13.78 13.29 10.84 17.71 11.1 22.46C11.4 27.92 15.92 32.37 21.39 32.59C24.34 32.7 27.14 31.65 29.27 29.6C31.4 27.56 32.57 24.8 32.57 21.85V16.83L35.21 16.78C35.98 16.78 36.69 17.05 37.23 17.59C37.77 18.12 38.07 18.84 38.07 19.6V21.47V21.44Z" fill="#753282"/>
<path d="M72.23 22.8C72.23 20.94 71.81 19.3 70.97 17.9C70.13 16.5 68.97 15.39 67.49 14.59C66.01 13.79 64.31 13.38 62.4 13.38C60.49 13.38 58.84 13.78 57.36 14.59C55.89 15.4 54.73 16.51 53.88 17.92C53.03 19.33 52.6 20.96 52.6 22.8C52.6 24.64 53.03 26.24 53.88 27.66C54.73 29.09 55.89 30.21 57.36 31.02C58.83 31.84 60.51 32.24 62.4 32.24C64.29 32.24 66.01 31.83 67.49 31.02C68.97 30.2 70.13 29.08 70.97 27.66C71.81 26.23 72.23 24.61 72.23 22.8ZM67.18 25.87C66.71 26.75 66.06 27.41 65.23 27.87C64.4 28.33 63.46 28.56 62.4 28.56C61.34 28.56 60.44 28.33 59.62 27.87C58.8 27.41 58.15 26.74 57.67 25.87C57.19 25 56.95 23.97 56.95 22.8C56.95 21.63 57.19 20.58 57.67 19.71C58.15 18.85 58.8 18.19 59.62 17.73C60.44 17.27 61.37 17.04 62.43 17.04C63.49 17.04 64.4 17.27 65.22 17.73C66.04 18.19 66.7 18.85 67.17 19.71C67.64 20.57 67.88 21.6 67.88 22.8C67.88 24 67.64 25 67.17 25.87H67.18Z" fill="white"/>
<path d="M76.58 32.46C76.58 33.43 76.36 34.16 75.92 34.65C75.48 35.14 74.87 35.39 74.09 35.39C73.08 35.39 72.24 35.15 71.57 34.67L70.33 37.88C70.84 38.25 71.45 38.52 72.18 38.69C72.9 38.86 73.67 38.95 74.47 38.95C76.52 38.95 78.1 38.36 79.21 37.17C80.32 35.98 80.88 34.38 80.88 32.36V13.59H76.57V32.46H76.58Z" fill="white"/>
<path d="M78.72 5.38C77.91 5.38 77.25 5.63 76.74 6.12C76.22 6.62 75.96 7.23 75.96 7.97C75.96 8.71 76.22 9.29 76.74 9.8C77.26 10.31 77.92 10.56 78.72 10.56C79.52 10.56 80.21 10.3 80.72 9.77999C81.23 9.25999 81.48 8.62 81.48 7.86C81.48 7.15 81.22 6.56 80.7 6.08C80.18 5.61 79.52 5.37 78.72 5.37V5.38Z" fill="white"/>
<path d="M104.56 32.01V13.59H100.25V15.87C99.73 15.28 99.13 14.78 98.46 14.4C97.24 13.72 95.87 13.38 94.36 13.38C92.59 13.38 91 13.77 89.58 14.55C88.16 15.33 87.05 16.43 86.25 17.83C85.45 19.23 85.04 20.89 85.04 22.8C85.04 24.71 85.44 26.37 86.25 27.77C87.05 29.17 88.17 30.27 89.58 31.06C90.99 31.85 92.59 32.25 94.36 32.25C95.95 32.25 97.34 31.91 98.55 31.22C99.29 30.8 99.92 30.23 100.46 29.55V32.01H104.57H104.56ZM99.59 25.87C99.11 26.75 98.45 27.41 97.63 27.87C96.8 28.33 95.87 28.56 94.84 28.56C93.81 28.56 92.88 28.33 92.06 27.87C91.24 27.41 90.6 26.74 90.11 25.87C89.63 25 89.39 23.97 89.39 22.8C89.39 21.63 89.63 20.58 90.11 19.71C90.59 18.85 91.24 18.19 92.06 17.73C92.88 17.27 93.8 17.04 94.84 17.04C95.88 17.04 96.81 17.27 97.63 17.73C98.46 18.19 99.11 18.85 99.59 19.71C100.07 20.57 100.31 21.6 100.31 22.8C100.31 24 100.07 25 99.59 25.87Z" fill="white"/>
<path d="M112.56 5.38C111.76 5.38 111.09 5.63 110.58 6.12C110.06 6.62 109.8 7.23 109.8 7.97C109.8 8.71 110.06 9.29 110.58 9.8C111.1 10.31 111.76 10.56 112.56 10.56C113.36 10.56 114.05 10.3 114.56 9.77999C115.07 9.25999 115.32 8.62 115.32 7.86C115.32 7.15 115.06 6.56 114.54 6.08C114.02 5.6 113.36 5.37 112.56 5.37V5.38Z" fill="white"/>
<path d="M110.42 32.46C110.42 33.43 110.2 34.16 109.76 34.65C109.32 35.14 108.72 35.39 107.93 35.39C106.92 35.39 106.08 35.15 105.41 34.67L104.17 37.88C104.68 38.25 105.29 38.52 106.02 38.69C106.74 38.86 107.51 38.95 108.31 38.95C110.35 38.95 111.94 38.36 113.05 37.17C114.16 35.98 114.72 34.38 114.72 32.36V13.59H110.41V32.46H110.42Z" fill="white"/>
<path d="M134.08 13.59V15.87C133.56 15.28 132.96 14.78 132.29 14.4C131.07 13.72 129.7 13.38 128.18 13.38C126.41 13.38 124.82 13.77 123.4 14.55C121.99 15.33 120.88 16.43 120.07 17.83C119.26 19.23 118.86 20.89 118.86 22.8C118.86 24.71 119.26 26.37 120.07 27.77C120.87 29.17 121.98 30.27 123.4 31.06C124.81 31.85 126.41 32.25 128.18 32.25C129.77 32.25 131.16 31.91 132.37 31.22C133.11 30.8 133.74 30.23 134.28 29.55V32.01H138.39V13.59H134.08ZM133.43 25.87C132.95 26.75 132.29 27.41 131.46 27.87C130.63 28.33 129.7 28.56 128.67 28.56C127.64 28.56 126.71 28.33 125.89 27.87C125.07 27.41 124.42 26.74 123.94 25.87C123.46 25 123.22 23.97 123.22 22.8C123.22 21.63 123.46 20.58 123.94 19.71C124.42 18.85 125.07 18.19 125.89 17.73C126.7 17.27 127.63 17.04 128.67 17.04C129.71 17.04 130.64 17.27 131.46 17.73C132.28 18.19 132.94 18.85 133.43 19.71C133.92 20.57 134.15 21.6 134.15 22.8C134.15 24 133.91 25 133.43 25.87Z" fill="white"/>
</svg>
