<svg width="360" height="414" viewBox="0 0 360 414" fill="none" xmlns="http://www.w3.org/2000/svg">
<mask id="path-1-inside-1_186_5726" fill="white">
<path fill-rule="evenodd" clip-rule="evenodd" d="M223.998 -12.8429C226.812 -13.2823 229.561 -13.3061 232.199 -12.9647C232.407 -12.97 232.615 -12.9748 232.823 -12.9789C239.413 -13.1099 245.961 -12.6342 252.389 -11.5778C265.247 -13.626 322.618 0.392598 336.364 52.4304C340.67 68.7317 345.066 85.9581 349.322 103.01L364.746 99.1684C425.878 83.9417 487.717 116.897 510.21 173.957C511.467 175.671 512.54 177.553 513.393 179.589C530.151 219.557 532.985 249.551 523.751 297.597C512.999 353.538 484.429 404.496 442.311 442.852C400.194 481.207 346.792 504.899 290.092 510.385C233.391 515.871 176.438 502.856 127.749 473.286C79.0594 443.716 41.2497 399.18 19.9731 346.338C-1.30352 293.495 -4.90372 235.185 9.71079 180.126C24.3253 125.068 56.3693 76.2188 101.051 40.884C136.866 12.5616 179.258 -5.85874 223.998 -12.8429ZM459.724 226.049L454.426 204.777C446.217 171.82 412.846 151.758 379.89 159.967L364.156 163.886C369.239 185.226 373.451 203.397 376.118 215.174C376.909 218.159 377.585 221.181 378.142 224.231L378.154 224.286L378.153 224.287C378.723 227.416 379.168 230.576 379.485 233.76C382.05 259.518 376.092 285.405 362.525 307.45C348.958 329.495 328.532 346.479 304.382 355.796C280.232 365.113 253.692 366.247 228.834 359.026C203.977 351.804 182.176 336.625 166.778 315.818C151.379 295.012 143.233 269.727 143.591 243.844C143.948 217.962 152.789 192.911 168.757 172.538C179.345 159.027 192.68 148.068 207.767 140.313C220.526 133.755 234.918 142.314 238.538 156.195L242.022 169.554C245.642 183.435 236.542 197.293 226.045 207.072C224.056 208.925 222.204 210.939 220.511 213.099C213.423 222.143 209.499 233.263 209.34 244.752C209.181 256.241 212.797 267.465 219.632 276.701C226.468 285.938 236.145 292.676 247.179 295.881C258.214 299.087 269.995 298.583 280.715 294.448C291.435 290.312 300.502 282.773 306.525 272.987C312.547 263.201 315.192 251.71 314.053 240.276C313.781 237.544 313.297 234.852 312.61 232.221C311.862 229.357 311.258 226.378 310.862 223.367C304.166 192.473 293.794 150.409 287.634 125.635C286.902 124.074 286.316 122.432 285.894 120.733C284.138 113.659 282.036 105.799 280.199 98.9338L280.199 98.9313C278.797 93.6919 277.551 89.0322 276.732 85.744C273.731 73.6972 269.224 67.7349 265.95 64.8471C263.523 62.7062 260.577 61.0962 257.686 59.6414C250.747 56.149 241.71 55.3134 234.183 55.4631C229.848 55.5492 225.553 55.7957 221.046 56.4347C192.704 62.8981 165.988 75.6149 142.934 93.846C109.689 120.137 85.8462 156.483 74.9723 197.449C64.0984 238.415 66.7772 281.801 82.608 321.118C98.4388 360.436 126.571 393.573 162.798 415.574C199.026 437.575 241.401 447.259 283.589 443.178C325.777 439.096 365.51 421.468 396.848 392.929C428.185 364.391 449.443 326.476 457.443 284.853C461.433 264.093 462.228 244.852 459.724 226.049Z"/>
</mask>
<path fill-rule="evenodd" clip-rule="evenodd" d="M223.998 -12.8429C226.812 -13.2823 229.561 -13.3061 232.199 -12.9647C232.407 -12.97 232.615 -12.9748 232.823 -12.9789C239.413 -13.1099 245.961 -12.6342 252.389 -11.5778C265.247 -13.626 322.618 0.392598 336.364 52.4304C340.67 68.7317 345.066 85.9581 349.322 103.01L364.746 99.1684C425.878 83.9417 487.717 116.897 510.21 173.957C511.467 175.671 512.54 177.553 513.393 179.589C530.151 219.557 532.985 249.551 523.751 297.597C512.999 353.538 484.429 404.496 442.311 442.852C400.194 481.207 346.792 504.899 290.092 510.385C233.391 515.871 176.438 502.856 127.749 473.286C79.0594 443.716 41.2497 399.18 19.9731 346.338C-1.30352 293.495 -4.90372 235.185 9.71079 180.126C24.3253 125.068 56.3693 76.2188 101.051 40.884C136.866 12.5616 179.258 -5.85874 223.998 -12.8429ZM459.724 226.049L454.426 204.777C446.217 171.82 412.846 151.758 379.89 159.967L364.156 163.886C369.239 185.226 373.451 203.397 376.118 215.174C376.909 218.159 377.585 221.181 378.142 224.231L378.154 224.286L378.153 224.287C378.723 227.416 379.168 230.576 379.485 233.76C382.05 259.518 376.092 285.405 362.525 307.45C348.958 329.495 328.532 346.479 304.382 355.796C280.232 365.113 253.692 366.247 228.834 359.026C203.977 351.804 182.176 336.625 166.778 315.818C151.379 295.012 143.233 269.727 143.591 243.844C143.948 217.962 152.789 192.911 168.757 172.538C179.345 159.027 192.68 148.068 207.767 140.313C220.526 133.755 234.918 142.314 238.538 156.195L242.022 169.554C245.642 183.435 236.542 197.293 226.045 207.072C224.056 208.925 222.204 210.939 220.511 213.099C213.423 222.143 209.499 233.263 209.34 244.752C209.181 256.241 212.797 267.465 219.632 276.701C226.468 285.938 236.145 292.676 247.179 295.881C258.214 299.087 269.995 298.583 280.715 294.448C291.435 290.312 300.502 282.773 306.525 272.987C312.547 263.201 315.192 251.71 314.053 240.276C313.781 237.544 313.297 234.852 312.61 232.221C311.862 229.357 311.258 226.378 310.862 223.367C304.166 192.473 293.794 150.409 287.634 125.635C286.902 124.074 286.316 122.432 285.894 120.733C284.138 113.659 282.036 105.799 280.199 98.9338L280.199 98.9313C278.797 93.6919 277.551 89.0322 276.732 85.744C273.731 73.6972 269.224 67.7349 265.95 64.8471C263.523 62.7062 260.577 61.0962 257.686 59.6414C250.747 56.149 241.71 55.3134 234.183 55.4631C229.848 55.5492 225.553 55.7957 221.046 56.4347C192.704 62.8981 165.988 75.6149 142.934 93.846C109.689 120.137 85.8462 156.483 74.9723 197.449C64.0984 238.415 66.7772 281.801 82.608 321.118C98.4388 360.436 126.571 393.573 162.798 415.574C199.026 437.575 241.401 447.259 283.589 443.178C325.777 439.096 365.51 421.468 396.848 392.929C428.185 364.391 449.443 326.476 457.443 284.853C461.433 264.093 462.228 244.852 459.724 226.049Z" fill="#702EB0"/>
<path d="M232.199 -12.9647L232.071 -11.973L232.148 -11.963L232.225 -11.965L232.199 -12.9647ZM223.998 -12.8429L223.843 -13.8309L223.843 -13.8309L223.998 -12.8429ZM232.823 -12.9789L232.803 -13.9787L232.803 -13.9787L232.823 -12.9789ZM252.389 -11.5778L252.227 -10.591L252.386 -10.5648L252.546 -10.5903L252.389 -11.5778ZM336.364 52.4304L335.397 52.6858L336.364 52.4304ZM349.322 103.01L348.352 103.252L348.594 104.222L349.564 103.981L349.322 103.01ZM364.746 99.1684L364.505 98.1981L364.746 99.1684ZM510.21 173.957L509.28 174.324L509.328 174.444L509.404 174.548L510.21 173.957ZM513.393 179.589L512.471 179.975L512.471 179.975L513.393 179.589ZM523.751 297.597L522.769 297.408L523.751 297.597ZM127.749 473.286L127.23 474.141L127.749 473.286ZM9.71079 180.126L10.6773 180.383L9.71079 180.126ZM101.051 40.884L101.672 41.6684L101.051 40.884ZM459.724 226.049L460.716 225.917L460.708 225.861L460.695 225.807L459.724 226.049ZM454.426 204.777L455.396 204.535L454.426 204.777ZM379.89 159.967L380.132 160.937L379.89 159.967ZM364.156 163.886L363.914 162.916L362.953 163.155L363.183 164.118L364.156 163.886ZM376.118 215.174L375.143 215.395L375.147 215.413L375.151 215.43L376.118 215.174ZM378.142 224.231L377.159 224.411L377.162 224.428L377.166 224.445L378.142 224.231ZM378.154 224.286L378.525 225.215L379.313 224.901L379.131 224.073L378.154 224.286ZM378.153 224.287L377.782 223.358L377.022 223.661L377.169 224.466L378.153 224.287ZM379.485 233.76L378.49 233.859L379.485 233.76ZM362.525 307.45L361.673 306.926L361.673 306.926L362.525 307.45ZM228.834 359.026L229.113 358.065L228.834 359.026ZM166.778 315.818L165.974 316.413L166.778 315.818ZM143.591 243.844L144.591 243.858L143.591 243.844ZM168.757 172.538L167.969 171.921L168.757 172.538ZM207.767 140.313L208.224 141.202L207.767 140.313ZM238.538 156.195L239.506 155.943L239.506 155.943L238.538 156.195ZM242.022 169.554L241.054 169.806L241.054 169.806L242.022 169.554ZM226.045 207.072L225.363 206.34L225.363 206.34L226.045 207.072ZM220.511 213.099L219.724 212.482L220.511 213.099ZM219.632 276.701L220.436 276.107L219.632 276.701ZM247.179 295.881L246.9 296.842L247.179 295.881ZM280.715 294.448L280.355 293.515L280.715 294.448ZM306.525 272.987L307.376 273.511L306.525 272.987ZM314.053 240.276L313.058 240.375L314.053 240.276ZM312.61 232.221L313.578 231.969L312.61 232.221ZM310.862 223.367L311.853 223.236L311.848 223.195L311.839 223.155L310.862 223.367ZM287.634 125.635L288.605 125.393L288.581 125.298L288.54 125.21L287.634 125.635ZM285.894 120.733L286.865 120.492L285.894 120.733ZM280.199 98.9338L279.229 99.1755L279.231 99.1839L279.233 99.1922L280.199 98.9338ZM280.199 98.9313L281.169 98.6896L281.167 98.6812L281.165 98.6729L280.199 98.9313ZM265.95 64.8471L265.289 65.597L265.95 64.8471ZM257.686 59.6414L257.237 60.5347L257.686 59.6414ZM234.183 55.4631L234.163 54.4633L234.183 55.4631ZM221.046 56.4347L220.906 55.4446L220.865 55.4505L220.824 55.4597L221.046 56.4347ZM142.934 93.846L143.554 94.6304L142.934 93.846ZM82.608 321.118L81.6803 321.492L82.608 321.118ZM162.798 415.574L163.317 414.719L162.798 415.574ZM396.848 392.929L396.174 392.19L396.174 392.19L396.848 392.929ZM457.443 284.853L458.425 285.041L457.443 284.853ZM232.328 -13.9564C229.595 -14.3101 226.751 -14.2849 223.843 -13.8309L224.152 -11.8548C226.873 -12.2797 229.527 -12.3022 232.071 -11.973L232.328 -13.9564ZM232.803 -13.9787C232.593 -13.9745 232.383 -13.9697 232.174 -13.9644L232.225 -11.965C232.431 -11.9703 232.637 -11.975 232.843 -11.9791L232.803 -13.9787ZM252.551 -12.5646C246.063 -13.6308 239.454 -14.1109 232.803 -13.9787L232.843 -11.9791C239.372 -12.1089 245.858 -11.6376 252.227 -10.591L252.551 -12.5646ZM337.331 52.175C330.369 25.8191 312.359 9.11238 294.527 -0.731418C285.611 -5.65336 276.722 -8.87025 269.243 -10.7289C261.8 -12.5784 255.646 -13.1093 252.231 -12.5654L252.546 -10.5903C255.56 -11.0704 261.4 -10.617 268.76 -8.78794C276.084 -6.96798 284.808 -3.81189 293.56 1.01951C311.065 10.6824 328.613 27.0039 335.397 52.6858L337.331 52.175ZM350.292 102.768C346.035 85.7127 341.639 68.4818 337.331 52.175L335.397 52.6858C339.702 68.9816 344.097 86.2035 348.352 103.252L350.292 102.768ZM349.564 103.981L364.988 100.139L364.505 98.1981L349.08 102.04L349.564 103.981ZM364.988 100.139C425.627 85.0349 486.968 117.725 509.28 174.324L511.141 173.59C488.466 116.07 426.13 82.8485 364.505 98.1981L364.988 100.139ZM514.316 179.202C513.431 177.093 512.319 175.142 511.017 173.366L509.404 174.548C510.614 176.199 511.648 178.013 512.471 179.975L514.316 179.202ZM524.733 297.785C529.36 273.707 530.975 254.099 529.315 235.475C527.654 216.846 522.723 199.254 514.315 179.202L512.471 179.975C520.821 199.892 525.685 217.281 527.323 235.653C528.961 254.03 527.375 273.441 522.769 297.408L524.733 297.785ZM442.984 443.591C485.261 405.09 513.94 353.939 524.733 297.785L522.769 297.408C512.058 353.137 483.596 403.902 441.638 442.112L442.984 443.591ZM290.188 511.381C347.103 505.874 400.707 482.092 442.984 443.591L441.638 442.112C399.68 480.323 346.481 503.925 289.995 509.39L290.188 511.381ZM127.23 474.141C176.104 503.823 233.273 516.887 290.188 511.381L289.995 509.39C233.51 514.855 176.773 501.889 128.268 472.431L127.23 474.141ZM19.0454 346.711C40.4027 399.754 78.3558 444.459 127.23 474.141L128.268 472.431C79.7631 442.974 42.0966 398.606 20.9007 345.964L19.0454 346.711ZM8.74426 179.87C-5.92565 235.137 -2.3118 293.668 19.0454 346.711L20.9007 345.964C-0.295237 293.322 -3.88179 235.233 10.6773 180.383L8.74426 179.87ZM100.431 40.0996C55.5796 75.5684 23.4142 124.602 8.74426 179.87L10.6773 180.383C25.2364 125.533 57.159 76.8693 101.672 41.6684L100.431 40.0996ZM223.843 -13.8309C178.934 -6.8203 136.381 11.6698 100.431 40.0996L101.672 41.6684C137.35 13.4533 179.581 -4.89718 224.152 -11.8548L223.843 -13.8309ZM460.695 225.807L455.396 204.535L453.456 205.018L458.754 226.29L460.695 225.807ZM455.396 204.535C447.054 171.043 413.14 150.655 379.648 158.997L380.132 160.937C412.552 152.862 445.38 172.598 453.456 205.018L455.396 204.535ZM379.648 158.997L363.914 162.916L364.397 164.857L380.132 160.937L379.648 158.997ZM377.093 214.953C374.425 203.172 370.213 184.997 365.128 163.654L363.183 164.118C368.266 185.455 372.477 203.622 375.143 215.395L377.093 214.953ZM379.126 224.051C378.564 220.975 377.883 217.928 377.085 214.918L375.151 215.43C375.936 218.391 376.606 221.386 377.159 224.411L379.126 224.051ZM379.131 224.073L379.119 224.017L377.166 224.445L377.178 224.5L379.131 224.073ZM378.523 225.216L378.525 225.215L377.784 223.357L377.782 223.358L378.523 225.216ZM380.48 233.661C380.16 230.45 379.711 227.264 379.136 224.108L377.169 224.466C377.734 227.569 378.175 230.702 378.49 233.859L380.48 233.661ZM363.377 307.974C377.058 285.743 383.066 259.636 380.48 233.661L378.49 233.859C381.033 259.399 375.125 285.068 361.673 306.926L363.377 307.974ZM304.742 356.729C329.097 347.333 349.695 330.206 363.377 307.974L361.673 306.926C348.221 328.785 327.968 345.625 304.022 354.863L304.742 356.729ZM228.555 359.986C253.623 367.269 280.387 366.124 304.742 356.729L304.022 354.863C280.076 364.101 253.76 365.226 229.113 358.065L228.555 359.986ZM165.974 316.413C181.503 337.396 203.488 352.703 228.555 359.986L229.113 358.065C204.466 350.905 182.85 335.854 167.581 315.223L165.974 316.413ZM142.591 243.83C142.23 269.932 150.445 295.43 165.974 316.413L167.581 315.223C152.313 294.593 144.236 269.522 144.591 243.858L142.591 243.83ZM167.969 171.921C151.867 192.467 142.951 217.729 142.591 243.83L144.591 243.858C144.945 218.194 153.711 193.356 169.544 173.155L167.969 171.921ZM207.31 139.424C192.095 147.244 178.648 158.296 167.969 171.921L169.544 173.155C180.043 159.758 193.265 148.892 208.224 141.202L207.31 139.424ZM239.506 155.943C235.766 141.602 220.777 132.501 207.31 139.424L208.224 141.202C220.274 135.008 234.07 143.025 237.57 156.447L239.506 155.943ZM242.99 169.301L239.506 155.943L237.57 156.447L241.054 169.806L242.99 169.301ZM226.727 207.804C237.271 197.981 246.76 183.757 242.99 169.301L241.054 169.806C244.525 183.112 235.812 196.606 225.363 206.34L226.727 207.804ZM221.298 213.716C222.959 211.597 224.775 209.621 226.727 207.804L225.363 206.34C223.336 208.229 221.449 210.281 219.724 212.482L221.298 213.716ZM210.34 244.766C210.495 233.496 214.345 222.588 221.298 213.716L219.724 212.482C212.501 221.699 208.502 233.03 208.34 244.738L210.34 244.766ZM220.436 276.107C213.731 267.046 210.184 256.036 210.34 244.766L208.34 244.738C208.178 256.447 211.863 267.884 218.829 277.296L220.436 276.107ZM247.458 294.921C236.634 291.776 227.141 285.167 220.436 276.107L218.829 277.296C225.794 286.708 235.656 293.575 246.9 296.842L247.458 294.921ZM280.355 293.515C269.839 297.572 258.282 298.066 247.458 294.921L246.9 296.842C258.145 300.108 270.15 299.595 281.075 295.381L280.355 293.515ZM305.673 272.463C299.765 282.062 290.871 289.458 280.355 293.515L281.075 295.381C291.999 291.166 301.239 283.483 307.376 273.511L305.673 272.463ZM313.058 240.375C314.175 251.591 311.581 262.864 305.673 272.463L307.376 273.511C313.513 263.539 316.208 251.828 315.048 240.177L313.058 240.375ZM311.642 232.474C312.316 235.054 312.791 237.695 313.058 240.375L315.048 240.177C314.771 237.393 314.277 234.649 313.578 231.969L311.642 232.474ZM309.871 223.497C310.273 226.553 310.885 229.573 311.642 232.474L313.578 231.969C312.839 229.14 312.244 226.202 311.853 223.236L309.871 223.497ZM286.664 125.876C292.824 150.653 303.193 192.702 309.885 223.579L311.839 223.155C305.14 192.244 294.764 150.166 288.605 125.393L286.664 125.876ZM284.924 120.974C285.361 122.737 285.969 124.44 286.729 126.059L288.54 125.21C287.834 123.707 287.271 122.127 286.865 120.492L284.924 120.974ZM279.233 99.1922C281.07 106.059 283.17 113.91 284.924 120.974L286.865 120.492C285.106 113.408 283.001 105.539 281.165 98.6754L279.233 99.1922ZM279.228 99.173L279.229 99.1755L281.17 98.6921L281.169 98.6896L279.228 99.173ZM275.761 85.9857C276.583 89.2843 277.832 93.954 279.233 99.1897L281.165 98.6729C279.762 93.4298 278.518 88.7801 277.702 85.5023L275.761 85.9857ZM265.289 65.597C268.381 68.3255 272.8 74.0953 275.761 85.9857L277.702 85.5023C274.662 73.2992 270.066 67.1443 266.612 64.0972L265.289 65.597ZM257.237 60.5347C260.12 61.9856 262.966 63.5477 265.289 65.597L266.612 64.0972C264.081 61.8647 261.034 60.2068 258.136 58.7481L257.237 60.5347ZM234.203 56.4629C241.677 56.3143 250.517 57.1527 257.237 60.5347L258.136 58.7481C250.977 55.1453 241.743 54.3126 234.163 54.4633L234.203 56.4629ZM221.187 57.4248C225.641 56.7933 229.893 56.5485 234.203 56.4629L234.163 54.4633C229.804 54.5499 225.466 54.7981 220.906 55.4446L221.187 57.4248ZM143.554 94.6304C166.491 76.4921 193.071 63.8401 221.269 57.4097L220.824 55.4597C192.338 61.956 165.485 74.7376 142.314 93.0616L143.554 94.6304ZM75.9389 197.706C86.7574 156.948 110.478 120.787 143.554 94.6304L142.314 93.0616C108.899 119.486 84.9351 156.018 74.0058 197.193L75.9389 197.706ZM83.5356 320.745C67.7854 281.628 65.1204 238.463 75.9389 197.706L74.0058 197.193C63.0765 238.367 65.7689 281.974 81.6803 321.492L83.5356 320.745ZM163.317 414.719C127.275 392.83 99.2858 359.862 83.5356 320.745L81.6803 321.492C97.5918 361.01 125.867 394.315 162.279 416.429L163.317 414.719ZM283.493 442.182C241.52 446.243 199.36 436.609 163.317 414.719L162.279 416.429C198.691 438.542 241.283 448.275 283.685 444.173L283.493 442.182ZM396.174 392.19C364.997 420.583 325.466 438.121 283.493 442.182L283.685 444.173C326.088 440.07 366.024 422.353 397.521 393.669L396.174 392.19ZM456.461 284.664C448.502 326.075 427.352 363.797 396.174 392.19L397.521 393.669C429.018 364.985 450.384 326.876 458.425 285.041L456.461 284.664ZM458.733 226.181C461.221 244.863 460.433 263.995 456.461 284.664L458.425 285.041C462.432 264.19 463.235 244.84 460.716 225.917L458.733 226.181Z" fill="#B9A6D4" fill-opacity="0.35" mask="url(#path-1-inside-1_186_5726)"/>
</svg>
