<svg width="40" height="41" viewBox="0 0 40 41" fill="none" xmlns="http://www.w3.org/2000/svg">
<rect x="0.5" y="1.19531" width="39" height="39" rx="5.5" fill="#3F0973" stroke="#A855F7"/>
<path fill-rule="evenodd" clip-rule="evenodd" d="M21.4267 11.6717C20.9606 10.3698 19.0395 10.3698 18.5734 11.6717L18.386 12.1955C18.0602 13.1057 16.9147 13.4624 16.0928 12.9095L15.62 12.5914C14.4445 11.8007 12.8903 12.883 13.3117 14.1987L13.4812 14.7281C13.7759 15.648 13.0679 16.5818 12.064 16.5975L11.4864 16.6065C10.0504 16.629 9.45669 18.3801 10.6046 19.2072L11.0664 19.5399C11.869 20.1182 11.869 21.2725 11.0664 21.8507L10.6046 22.1834C9.45669 23.0105 10.0504 24.7616 11.4864 24.7841L12.064 24.7931C13.0679 24.8088 13.7759 25.7427 13.4812 26.6626L13.3117 27.1919C12.8903 28.5077 14.4445 29.5899 15.62 28.7992L16.0928 28.4811C16.9147 27.9282 18.0602 28.2849 18.386 29.1952L18.5734 29.7189C19.0395 31.0208 20.9606 31.0208 21.4267 29.7189L21.614 29.1951C21.9398 28.2849 23.0854 27.9282 23.9073 28.4811L24.38 28.7992C25.5556 29.5899 27.1098 28.5077 26.6884 27.1919L26.5188 26.6626C26.2241 25.7427 26.9322 24.8088 27.9361 24.7931L28.5137 24.7841C29.9496 24.7616 30.5434 23.0105 29.3954 22.1834L28.9336 21.8507C28.131 21.2725 28.131 20.1182 28.9336 19.5399L29.3954 19.2072C30.5434 18.3801 29.9496 16.629 28.5137 16.6065L27.9361 16.5975C26.9322 16.5818 26.2241 15.648 26.5188 14.7281L26.6884 14.1987C27.1098 12.883 25.5556 11.8007 24.38 12.5914L23.9073 12.9095C23.0854 13.4624 21.9398 13.1057 21.614 12.1955L21.4267 11.6717ZM20 24.6953C22.2091 24.6953 24 22.9044 24 20.6953C24 18.4862 22.2091 16.6953 20 16.6953C17.7909 16.6953 16 18.4862 16 20.6953C16 22.9044 17.7909 24.6953 20 24.6953Z" fill="white"/>
</svg>
