<svg width="40" height="41" viewBox="0 0 40 41" fill="none" xmlns="http://www.w3.org/2000/svg">
<path d="M0.5 6.69531C0.5 3.65775 2.96243 1.19531 6 1.19531H34C37.0376 1.19531 39.5 3.65775 39.5 6.69531V34.6953C39.5 37.7329 37.0376 40.1953 34 40.1953H6C2.96243 40.1953 0.5 37.7329 0.5 34.6953V6.69531Z" fill="#3F0973"/>
<path d="M0.5 6.69531C0.5 3.65775 2.96243 1.19531 6 1.19531H34C37.0376 1.19531 39.5 3.65775 39.5 6.69531V34.6953C39.5 37.7329 37.0376 40.1953 34 40.1953H6C2.96243 40.1953 0.5 37.7329 0.5 34.6953V6.69531Z" stroke="#A855F7"/>
<path d="M20 25.6953C20 28.4567 22.2386 30.6953 25 30.6953C27.7614 30.6953 30 28.4567 30 25.6953C30 22.9339 27.7614 20.6953 25 20.6953C22.2386 20.6953 20 22.9339 20 25.6953ZM20 25.6953C20 24.5695 20.3721 23.5306 21 22.6948V13.6953M20 25.6953C20 26.5207 20.2 27.2993 20.5541 27.9854C19.7117 28.6971 17.7658 29.1953 15.5 29.1953C12.4624 29.1953 10 28.2999 10 27.1953V13.6953M21 13.6953C21 14.7999 18.5376 15.6953 15.5 15.6953C12.4624 15.6953 10 14.7999 10 13.6953M21 13.6953C21 12.5907 18.5376 11.6953 15.5 11.6953C12.4624 11.6953 10 12.5907 10 13.6953M10 22.6953C10 23.7999 12.4624 24.6953 15.5 24.6953C17.689 24.6953 19.5793 24.2303 20.4646 23.5571M21 18.1953C21 19.2999 18.5376 20.1953 15.5 20.1953C12.4624 20.1953 10 19.2999 10 18.1953" stroke="#EDF0F3" stroke-width="1.5" stroke-linecap="round" stroke-linejoin="round"/>
</svg>
