<svg width="40" height="41" viewBox="0 0 40 41" fill="none" xmlns="http://www.w3.org/2000/svg">
<rect x="0.5" y="1.19531" width="39" height="39" rx="5.5" fill="#3F0973" stroke="#A855F7"/>
<path fill-rule="evenodd" clip-rule="evenodd" d="M20.414 13.6953H28C29.103 13.6953 30 14.5923 30 15.6953V27.6953C30 28.7983 29.103 29.6953 28 29.6953H12C10.897 29.6953 10 28.7983 10 27.6953V13.6953C10 12.5923 10.897 11.6953 12 11.6953H18C18.265 11.6953 18.52 11.8003 18.707 11.9883L20.414 13.6953ZM14 23.6953C13.4477 23.6953 13 24.143 13 24.6953C13 25.2476 13.4477 25.6953 14 25.6953H24C24.5523 25.6953 25 25.2476 25 24.6953C25 24.143 24.5523 23.6953 24 23.6953H14Z" fill="white"/>
</svg>
