<svg width="25" height="25" viewBox="0 0 25 25" fill="none" xmlns="http://www.w3.org/2000/svg">
<path d="M1.8501 3.5H4.8501L5.59266 7.50003M5.59266 7.50003L7.48663 17.5H18.5927L20.0927 7.50003H5.59266Z" stroke="#3F0973" stroke-width="2" stroke-linecap="round" stroke-linejoin="round"/>
<path d="M7.59277 23.25C8.4212 23.25 9.09277 22.5784 9.09277 21.75C9.09277 20.9216 8.4212 20.25 7.59277 20.25C6.76434 20.25 6.09277 20.9216 6.09277 21.75C6.09277 22.5784 6.76434 23.25 7.59277 23.25ZM17.3428 23.25C18.1712 23.25 18.8428 22.5784 18.8428 21.75C18.8428 20.9216 18.1712 20.25 17.3428 20.25C16.5144 20.25 15.8428 20.9216 15.8428 21.75C15.8428 22.5784 16.5144 23.25 17.3428 23.25Z" fill="#3F0973" stroke="#3F0973" stroke-width="0.5" stroke-linecap="round" stroke-linejoin="round"/>
</svg>
