<svg width="40" height="41" viewBox="0 0 40 41" fill="none" xmlns="http://www.w3.org/2000/svg">
<path d="M20 26C20 28.7614 22.2386 31 25 31C27.7614 31 30 28.7614 30 26C30 23.2386 27.7614 21 25 21C22.2386 21 20 23.2386 20 26ZM20 26C20 24.8742 20.3721 23.8353 21 22.9995V14M20 26C20 26.8254 20.2 27.604 20.5541 28.2901C19.7117 29.0018 17.7658 29.5 15.5 29.5C12.4624 29.5 10 28.6046 10 27.5V14M21 14C21 15.1046 18.5376 16 15.5 16C12.4624 16 10 15.1046 10 14M21 14C21 12.8954 18.5376 12 15.5 12C12.4624 12 10 12.8954 10 14M10 23C10 24.1046 12.4624 25 15.5 25C17.689 25 19.5793 24.535 20.4646 23.8618M21 18.5C21 19.6046 18.5376 20.5 15.5 20.5C12.4624 20.5 10 19.6046 10 18.5" stroke="#3F0973" stroke-width="1.5" stroke-linecap="round" stroke-linejoin="round"/>
</svg>
