<svg width="40" height="41" viewBox="0 0 40 41" fill="none" xmlns="http://www.w3.org/2000/svg">
<rect y="0.695312" width="40" height="40" rx="6" fill="#702EB0"/>
<path fill-rule="evenodd" clip-rule="evenodd" d="M21.3196 12.3485C20.8885 11.1442 19.1115 11.1443 18.6804 12.3485L18.507 12.833C18.2057 13.6749 17.1461 14.0049 16.3858 13.4935L15.9485 13.1992C14.8611 12.4678 13.4235 13.4689 13.8133 14.686L13.9701 15.1756C14.2427 16.0265 13.5878 16.8903 12.6592 16.9048L12.1249 16.9132C10.7967 16.934 10.2474 18.5538 11.3093 19.3188L11.7364 19.6266C12.4789 20.1614 12.4789 21.2292 11.7364 21.764L11.3093 22.0718C10.2474 22.8368 10.7967 24.4566 12.1249 24.4774L12.6592 24.4857C13.5878 24.5003 14.2427 25.3641 13.9701 26.215L13.8133 26.7046C13.4235 27.9217 14.8611 28.9228 15.9485 28.1913L16.3858 27.8971C17.1461 27.3857 18.2057 27.7157 18.507 28.5576L18.6804 29.0421C19.1115 30.2463 20.8885 30.2463 21.3196 29.0421L21.493 28.5576C21.7943 27.7157 22.8539 27.3857 23.6142 27.8971L24.0515 28.1914C25.1389 28.9228 26.5765 27.9217 26.1867 26.7046L26.0299 26.215C25.7573 25.3641 26.4122 24.5003 27.3408 24.4857L27.8751 24.4774C29.2033 24.4566 29.7526 22.8368 28.6907 22.0718L28.2636 21.764C27.5211 21.2292 27.5211 20.1614 28.2636 19.6266L28.6907 19.3188C29.7526 18.5538 29.2033 16.934 27.8751 16.9132L27.3408 16.9048C26.4122 16.8903 25.7573 16.0265 26.0299 15.1756L26.1867 14.686C26.5765 13.4689 25.1389 12.4678 24.0515 13.1992L23.6142 13.4935C22.8539 14.0049 21.7943 13.6749 21.493 12.833L21.3196 12.3485ZM20 24.3953C22.0434 24.3953 23.7 22.7387 23.7 20.6953C23.7 18.6518 22.0434 16.9953 20 16.9953C17.9566 16.9953 16.3 18.6518 16.3 20.6953C16.3 22.7387 17.9566 24.3953 20 24.3953Z" stroke="#3F0973" stroke-width="1.5"/>
</svg>
