<svg width="40" height="41" viewBox="0 0 40 41" fill="none" xmlns="http://www.w3.org/2000/svg">
<path d="M30 30V28C30 26.1362 28.7252 24.5701 27 24.126M23.5 12.2908C24.9659 12.8841 26 14.3213 26 16C26 17.6787 24.9659 19.1159 23.5 19.7092M25 30C25 28.1362 25 27.2044 24.6955 26.4693C24.2895 25.4892 23.5108 24.7105 22.5307 24.3045C21.7956 24 20.8638 24 19 24H16C14.1362 24 13.2044 24 12.4693 24.3045C11.4892 24.7105 10.7105 25.4892 10.3045 26.4693C10 27.2044 10 28.1362 10 30M21.5 16C21.5 18.2091 19.7091 20 17.5 20C15.2909 20 13.5 18.2091 13.5 16C13.5 13.7909 15.2909 12 17.5 12C19.7091 12 21.5 13.7909 21.5 16Z" stroke="#3F0973" stroke-width="2" stroke-linecap="round" stroke-linejoin="round"/>
</svg>
