<svg width="41" height="40" viewBox="0 0 41 40" fill="none" xmlns="http://www.w3.org/2000/svg">
<rect width="41" height="40" fill="#1E1E1E"/>
<rect width="1512" height="982" transform="translate(-439 -667)" fill="white"/>
<rect width="1400" height="982" transform="translate(-383 -667)" fill="white"/>
<rect x="-191" y="-470" width="1016" height="606" rx="20" fill="white"/>
<circle opacity="0.5" cx="20.5" cy="20" r="20" fill="#A855F7" fill-opacity="0.52"/>
<path fill-rule="evenodd" clip-rule="evenodd" d="M12.167 20.0013C12.167 15.4021 15.9003 11.668 20.5003 11.668C25.1087 11.668 28.8337 15.4021 28.8337 20.0013C28.8337 24.6021 25.1087 28.3346 20.5003 28.3346C15.9003 28.3346 12.167 24.6021 12.167 20.0013ZM19.767 16.843C19.767 16.4438 20.1003 16.1096 20.5003 16.1096C20.9003 16.1096 21.2253 16.4438 21.2253 16.843V20.5263C21.2253 20.9271 20.9003 21.2513 20.5003 21.2513C20.1003 21.2513 19.767 20.9271 19.767 20.5263V16.843ZM20.5087 23.9021C20.1003 23.9021 19.7753 23.5688 19.7753 23.1688C19.7753 22.7688 20.1003 22.4438 20.5003 22.4438C20.9087 22.4438 21.2337 22.7688 21.2337 23.1688C21.2337 23.5688 20.9087 23.9021 20.5087 23.9021Z" fill="#702EB0"/>
</svg>
