<svg width="121" height="121" viewBox="0 0 121 121" fill="none" xmlns="http://www.w3.org/2000/svg">
<rect width="121" height="121" fill="#1E1E1E"/>
<rect x="-157" y="-79" width="436" height="409" rx="16" fill="white"/>
<path d="M120.408 60.2648C120.408 93.3507 93.5861 120.172 60.5001 120.172C27.4142 120.172 0.592529 93.3507 0.592529 60.2648C0.592529 27.1788 27.4142 0.357422 60.5001 0.357422C93.5861 0.357422 120.408 27.1788 120.408 60.2648Z" fill="#702EB0"/>
<path fill-rule="evenodd" clip-rule="evenodd" d="M76.2224 43.2976L52.2156 66.3795L45.845 59.5986C44.6715 58.4963 42.8274 58.4294 41.4863 59.3647C40.1786 60.3335 39.8098 62.037 40.6145 63.4066L48.1585 75.6323C48.8962 76.7681 50.1703 77.4695 51.612 77.4695C52.9867 77.4695 54.2944 76.7681 55.032 75.6323C56.239 74.0624 79.2735 46.7048 79.2735 46.7048C82.2911 43.6316 78.6364 40.9259 76.2224 43.2642L76.2224 43.2976Z" fill="white"/>
</svg>
