<svg width="37" height="37" viewBox="0 0 37 37" fill="none" xmlns="http://www.w3.org/2000/svg">
<path fill-rule="evenodd" clip-rule="evenodd" d="M19.8886 0.0725477C20.0939 0.0909455 20.2868 0.138534 20.4649 0.210655L20.486 0.215442C20.9286 0.316846 21.3583 0.458057 21.7705 0.636066C22.6506 0.699774 26.299 2.61057 26.3519 6.36838C26.369 7.58028 26.3759 8.86048 26.3761 10.1228H27.8175C31.9781 10.1228 35.4093 13.2459 35.8946 17.2756C36.004 17.4706 36.0806 17.6871 36.1163 17.9193C36.5745 20.9013 36.2635 22.9739 34.8382 26.0631C33.1796 29.6578 30.4073 32.6166 26.9357 34.4972C23.4641 36.3778 19.4797 37.0791 15.5784 36.4962C11.6771 35.9132 8.06843 34.0775 5.292 31.2634C2.51556 28.4493 0.720551 24.808 0.175359 20.8841C-0.369834 16.9601 0.364088 12.9643 2.26738 9.49413C4.17068 6.02395 7.14108 3.26586 10.7344 1.63226C13.613 0.323596 16.7675 -0.207103 19.8886 0.0725477ZM31.8475 18.3125V18.2587C31.8475 16.033 30.0432 14.2288 27.8175 14.2288H26.3552C26.3389 15.8795 26.3158 17.2745 26.2969 18.1308C26.2972 18.2725 26.2938 18.4144 26.2867 18.5564L26.2837 18.6692L26.2803 18.6697C26.2663 18.8911 26.2433 19.1125 26.2112 19.3333C25.9525 21.1147 25.1189 22.7617 23.8385 24.0215C22.5581 25.2812 20.9015 26.0841 19.123 26.3069C17.3445 26.5297 15.5424 26.1601 13.9932 25.2549C12.444 24.3496 11.2333 22.9587 10.5469 21.2957C9.86048 19.6326 9.73634 17.7892 10.1935 16.0484C10.6507 14.3077 11.6639 12.7657 13.0776 11.6591C14.0409 10.9051 15.1539 10.3817 16.3323 10.1184C17.2496 9.9134 18.028 10.6845 18.0383 11.6243L18.0511 12.7932C18.0614 13.7334 17.2672 14.4718 16.4336 14.907C16.2383 15.009 16.0515 15.1292 15.876 15.2665C15.2484 15.7577 14.7987 16.4422 14.5958 17.215C14.3928 17.9877 14.4479 18.806 14.7526 19.5442C15.0573 20.2825 15.5947 20.8999 16.2824 21.3017C16.9701 21.7035 17.7701 21.8676 18.5596 21.7687C19.3491 21.6698 20.0844 21.3134 20.6528 20.7542C21.2212 20.195 21.5912 19.4639 21.706 18.6731C21.7388 18.4475 21.7502 18.2206 21.741 17.9953C21.7298 17.7238 21.7428 17.4427 21.7867 17.1693C21.8448 15.0378 21.8519 12.2688 21.8528 10.567C21.8269 10.4461 21.8136 10.3217 21.8139 10.196C21.8152 9.67307 21.805 9.0801 21.7962 8.56493L21.7962 8.56468C21.7897 8.18746 21.7839 7.85197 21.7839 7.61626C21.7839 6.73436 21.5721 6.25439 21.3983 6.00901C21.2759 5.83612 21.1146 5.68733 20.9558 5.54721C20.5476 5.18713 19.9463 4.97521 19.432 4.85738C19.1269 4.78748 18.8217 4.73006 18.493 4.69809C16.4951 4.66455 14.5028 5.07384 12.6621 5.91066C9.98846 7.12614 7.77834 9.17829 6.36219 11.7603C4.94605 14.3422 4.39998 17.3153 4.80563 20.2349C5.21128 23.1545 6.54685 25.8638 8.61265 27.9576C10.6785 30.0515 13.3635 31.4174 16.2662 31.8511C19.169 32.2848 22.1336 31.763 24.7166 30.3638C27.2996 28.9645 29.3624 26.763 30.5964 24.0884C31.4212 22.3008 31.8149 20.6007 31.8042 18.8086C31.8032 18.6407 31.8181 18.4746 31.8475 18.3125Z" fill="white"/>
</svg>
