<svg width="158" height="49" viewBox="0 0 158 49" fill="none" xmlns="http://www.w3.org/2000/svg">
<path fill-rule="evenodd" clip-rule="evenodd" d="M26.1419 0.095358C26.4205 0.120325 26.6818 0.186191 26.9222 0.286218L26.9272 0.287367C27.5065 0.420084 28.069 0.604677 28.6087 0.837244C29.7561 0.913692 34.5661 3.42539 34.6358 8.37225C34.6582 9.96465 34.6674 11.6468 34.6676 13.3055H36.5656C42.0358 13.3055 46.5467 17.4126 47.1827 22.7114C47.3254 22.9667 47.4252 23.2498 47.4718 23.5534C48.0742 27.4731 47.6653 30.1973 45.7919 34.2578C43.6119 38.9827 39.9679 42.8719 35.4047 45.3437C30.8416 47.8156 25.6045 48.7373 20.4765 47.9712C15.3486 47.205 10.6053 44.792 6.95589 41.0931C3.3065 37.3942 0.947104 32.6081 0.230494 27.4503C-0.486116 22.2926 0.478563 17.0405 2.98029 12.4792C5.48201 7.91798 9.38636 4.2927 14.1095 2.14546C17.8932 0.42534 22.0395 -0.27222 26.1419 0.095358ZM41.8626 24.0606V23.9993C41.8626 21.0739 39.4911 18.7024 36.5656 18.7024H34.6402C34.6189 20.8499 34.589 22.6683 34.5643 23.797C34.5653 24.0053 34.5604 24.2139 34.5494 24.4226L34.5461 24.5407L34.5424 24.5412C34.5239 24.8312 34.4937 25.1212 34.4517 25.4105C34.1117 27.7521 33.0161 29.9169 31.3331 31.5728C29.6501 33.2286 27.4726 34.2839 25.135 34.5767C22.7973 34.8696 20.4285 34.3838 18.3922 33.194C16.3559 32.0041 14.7645 30.1759 13.8623 27.9899C12.9601 25.804 12.7969 23.381 13.3978 21.0929C13.9987 18.8048 15.3305 16.778 17.1887 15.3235C18.4549 14.3324 19.9178 13.6444 21.4667 13.2983C22.6725 13.0289 23.6956 14.0424 23.7092 15.2778L23.726 16.8142C23.7396 18.05 22.6956 19.0205 21.5999 19.5926C21.3431 19.7266 21.0977 19.8846 20.867 20.0652C20.0421 20.7108 19.451 21.6105 19.1842 22.6262C18.9175 23.6419 18.9899 24.7174 19.3904 25.6878C19.7909 26.6582 20.4973 27.4697 21.4012 27.9979C22.3051 28.526 23.3566 28.7417 24.3943 28.6117C25.432 28.4817 26.3986 28.0132 27.1457 27.2782C27.8928 26.5432 28.3791 25.5822 28.5301 24.5428C28.5731 24.2463 28.5882 23.9481 28.576 23.6519C28.5614 23.2971 28.5782 22.9298 28.6352 22.5724C28.7116 19.768 28.721 16.123 28.7221 13.8857C28.6891 13.7293 28.6722 13.5685 28.6727 13.406C28.6744 12.7185 28.661 11.939 28.6494 11.2618V11.2618C28.6409 10.7659 28.6333 10.325 28.6333 10.0151C28.6333 8.85594 28.3549 8.22506 28.1264 7.90253C27.9655 7.67527 27.7535 7.4797 27.5447 7.29554C27.0083 6.82224 26.2178 6.54368 25.5418 6.38881C25.1243 6.29316 24.7068 6.21529 24.2542 6.17443C21.6461 6.13846 19.0464 6.67657 16.6433 7.76907C13.129 9.36671 10.224 12.0641 8.36257 15.4579C6.50117 18.8517 5.7834 22.7595 6.3166 26.5971C6.84979 30.4347 8.60529 33.9958 11.3206 36.748C14.0359 39.5002 17.5652 41.2955 21.3806 41.8656C25.1961 42.4357 29.0927 41.7498 32.4879 39.9107C35.8831 38.0715 38.5944 35.1777 40.2165 31.6622C41.3006 29.3125 41.8181 27.0779 41.8039 24.7224C41.8026 24.4983 41.8228 24.2767 41.8626 24.0606Z" fill="#EDF0F3"/>
<path d="M67.6959 37.5649C62.7706 37.5649 59.7052 33.9484 59.7052 28.6787C59.7052 23.3745 62.805 19.5858 67.937 19.5858C70.3136 19.5858 72.4146 20.5846 73.4823 22.2723V11.4917H77.6499V37.1172H73.7923L73.5167 34.4651C72.4835 36.4283 70.2791 37.5649 67.6959 37.5649ZM68.6259 33.7073C71.5535 33.7073 73.4479 31.6063 73.4479 28.5409C73.4479 25.4755 71.5535 23.3401 68.6259 23.3401C65.6982 23.3401 63.9072 25.5099 63.9072 28.5409C63.9072 31.5719 65.6982 33.7073 68.6259 33.7073ZM84.9203 37.1172H80.7183V20.1024H84.5759L84.9203 22.1001C85.7814 20.688 87.5036 19.5858 89.949 19.5858C92.5322 19.5858 94.3232 20.8602 95.2188 22.8234C96.0798 20.8602 98.0775 19.5858 100.661 19.5858C104.794 19.5858 107.067 22.0657 107.067 25.9921V37.1172H102.9V27.0943C102.9 24.6489 101.591 23.3745 99.593 23.3745C97.5609 23.3745 96.0109 24.6833 96.0109 27.4732V37.1172H91.8089V27.0599C91.8089 24.6833 90.5345 23.4089 88.5368 23.4089C86.5392 23.4089 84.9203 24.7178 84.9203 27.4732V37.1172ZM108.883 28.5754C108.883 23.2712 112.706 19.6202 117.976 19.6202C123.245 19.6202 127.068 23.2712 127.068 28.5754C127.068 33.8796 123.245 37.5305 117.976 37.5305C112.706 37.5305 108.883 33.8796 108.883 28.5754ZM113.085 28.5754C113.085 31.6752 115.082 33.7762 117.976 33.7762C120.869 33.7762 122.866 31.6752 122.866 28.5754C122.866 25.4755 120.869 23.3745 117.976 23.3745C115.082 23.3745 113.085 25.4755 113.085 28.5754ZM139.766 20.0335V23.9256H138.216C135.185 23.9256 133.291 25.5444 133.291 28.8509V37.1172H129.089V20.1369H133.049L133.291 22.6168C134.014 20.9291 135.633 19.7924 137.906 19.7924C138.491 19.7924 139.077 19.8613 139.766 20.0335ZM148.339 37.5649C143.276 37.5649 139.729 33.8796 139.729 28.6098C139.729 23.2712 143.207 19.5858 148.202 19.5858C153.299 19.5858 156.537 22.9956 156.537 28.2998V29.5742L143.724 29.6086C144.034 32.6052 145.618 34.1207 148.408 34.1207C150.716 34.1207 152.232 33.2251 152.714 31.6063H156.606C155.882 35.3262 152.783 37.5649 148.339 37.5649ZM148.236 23.0301C145.756 23.0301 144.241 24.3733 143.827 26.9221H152.369C152.369 24.58 150.75 23.0301 148.236 23.0301Z" fill="#EDF0F3"/>
</svg>
