<svg width="45" height="45" viewBox="0 0 45 45" fill="none" xmlns="http://www.w3.org/2000/svg">
<path fill-rule="evenodd" clip-rule="evenodd" d="M24.8253 0.513011C25.0587 0.533925 25.2787 0.586186 25.483 0.665071L25.5444 0.678911C26.0753 0.800584 26.5908 0.969891 27.0853 1.18325C28.1394 1.25657 32.5336 3.55551 32.5973 8.07997C32.6179 9.54233 32.6262 11.0873 32.6264 12.6104H34.3614C39.3657 12.6104 43.4927 16.3666 44.0769 21.2134C44.2074 21.447 44.2987 21.7061 44.3414 21.9839C44.8926 25.5719 44.5186 28.0656 42.8044 31.7824C40.8099 36.1072 37.4758 39.667 33.3008 41.9295C29.1259 44.192 24.3342 45.0357 19.6425 44.3344C14.9507 43.6331 10.6109 41.4245 7.27192 38.0388C3.93296 34.6532 1.77426 30.2724 1.1186 25.5514C0.462949 20.8305 1.34557 16.0232 3.63449 11.8482C5.92341 7.67321 9.49565 4.35494 13.8171 2.38955C17.2787 0.815182 21.0721 0.176681 24.8253 0.513011ZM39.2088 22.4502V22.3967C39.2088 19.7195 37.0386 17.5493 34.3614 17.5493H32.6011C32.5817 19.509 32.5544 21.168 32.5319 22.1986C32.533 22.3937 32.5283 22.5891 32.5178 22.7846L32.5152 22.8792L32.5123 22.8796C32.4954 23.1471 32.4676 23.4147 32.4289 23.6815C32.1178 25.8248 31.1154 27.8063 29.5755 29.3219C28.0357 30.8375 26.0435 31.8034 23.9046 32.0715C21.7658 32.3395 19.5985 31.8949 17.7354 30.8058C15.8723 29.7167 14.4163 28.0433 13.5908 26.0425C12.7654 24.0416 12.6161 21.8239 13.1659 19.7295C13.7157 17.6352 14.9341 15.78 16.6343 14.4487C17.7927 13.5416 19.131 12.9119 20.548 12.5951C21.6514 12.3484 22.5877 13.2759 22.6001 14.4064L22.6155 15.8136C22.6279 16.9445 21.6725 17.8327 20.6699 18.3565C20.4351 18.4791 20.2107 18.6236 19.9997 18.7888C19.245 19.3798 18.7041 20.2033 18.4601 21.133C18.216 22.0627 18.2823 23.0471 18.6487 23.9353C19.0151 24.8235 19.6615 25.5663 20.4885 26.0498C21.3155 26.5332 22.2776 26.7306 23.227 26.6116C24.1764 26.4926 25.0608 26.0638 25.7443 25.391C26.4279 24.7183 26.8728 23.8387 27.0109 22.8873C27.0504 22.6155 27.0642 22.3422 27.0529 22.0708C27.0395 21.7461 27.0548 21.4101 27.1069 21.083C27.177 18.5151 27.1856 15.175 27.1866 13.1258C27.1565 12.9828 27.141 12.8356 27.1414 12.687C27.143 12.0577 27.1308 11.344 27.1201 10.724C27.1123 10.2701 27.1054 9.86645 27.1054 9.58285C27.1054 8.5218 26.8506 7.94434 26.6416 7.64913C26.4944 7.44116 26.3004 7.26217 26.1095 7.09361C25.6186 6.66038 24.8954 6.4054 24.2769 6.26364C23.9326 6.18472 23.5882 6.11903 23.2204 6.07945C20.7934 6.02781 18.3713 6.51995 16.1353 7.53691C12.9199 8.99926 10.262 11.4682 8.55895 14.5746C6.85589 17.681 6.19917 21.2579 6.68701 24.7705C7.17485 28.2831 8.78103 31.5426 11.2654 34.0617C13.7497 36.5808 16.9788 38.2241 20.4697 38.7459C23.9606 39.2677 27.5258 38.64 30.6321 36.9565C33.7385 35.2731 36.2192 32.6244 37.7033 29.4066C38.6954 27.2554 39.1689 25.2096 39.1557 23.053C39.1545 22.8489 39.1728 22.6471 39.2088 22.4502Z" fill="#3F0973"/>
</svg>
